<?xml version="1.0" standalone="no"?>
<!DOCTYPE svg PUBLIC "-//W3C//DTD SVG 20010904//EN"
 "http://www.w3.org/TR/2001/REC-SVG-20010904/DTD/svg10.dtd">
<svg version="1.0" xmlns="http://www.w3.org/2000/svg"
 width="1280.000000pt" height="1134.000000pt" viewBox="0 0 1280.000000 1134.000000"
 preserveAspectRatio="xMidYMid meet">
<metadata>
Created by potrace 1.15, written by Peter Selinger 2001-2017
</metadata>
<g transform="translate(0.000000,1134.000000) scale(0.100000,-0.100000)"
fill="#000000" stroke="none">
<path d="M10435 11334 c-222 -31 -424 -105 -593 -218 -258 -171 -447 -423
-537 -712 -20 -66 -40 -128 -45 -139 -6 -16 -37 -27 -166 -58 -88 -22 -341
-84 -564 -139 -223 -54 -495 -121 -605 -148 -110 -27 -328 -80 -485 -119 -295
-72 -605 -148 -1022 -250 -134 -33 -391 -96 -573 -141 -181 -45 -429 -105
-550 -135 -121 -30 -377 -93 -570 -140 -192 -47 -458 -113 -590 -145 -132 -32
-368 -90 -525 -129 -209 -51 -287 -66 -292 -58 -4 7 -8 26 -8 42 0 26 14 41
112 120 62 50 256 206 431 348 l318 257 290 0 289 0 0 525 0 525 -2375 0
-2375 0 0 -525 0 -525 288 0 287 -1 236 -192 c130 -106 321 -261 424 -345
l189 -153 1 -192 c1 -168 4 -201 24 -266 105 -350 366 -597 716 -677 107 -25
311 -25 414 -1 118 28 221 73 321 139 l93 61 531 108 c292 59 646 130 786 159
521 105 1543 312 1780 360 135 27 513 104 840 170 327 66 683 138 790 160 363
73 1574 318 1650 334 41 9 75 16 76 16 1 0 30 -39 65 -86 186 -252 475 -438
789 -510 58 -13 119 -24 136 -24 l32 0 6 -72 c4 -40 11 -138 16 -218 5 -80 14
-216 20 -302 5 -87 15 -228 20 -313 6 -85 15 -225 20 -310 6 -85 15 -225 20
-310 6 -85 15 -225 20 -310 6 -85 15 -225 20 -310 6 -85 15 -226 20 -312 6
-87 15 -223 20 -303 5 -80 14 -216 20 -302 5 -87 15 -228 20 -313 6 -85 14
-224 20 -308 10 -152 21 -328 40 -637 6 -91 15 -228 20 -305 5 -77 10 -155 10
-172 l0 -33 -565 0 -564 0 -4 1133 -3 1132 -22 99 c-94 411 -317 697 -583 746
-36 7 -474 9 -1280 8 l-1224 -3 -115 -57 c-147 -73 -255 -155 -406 -309 -237
-243 -438 -525 -696 -974 -202 -350 -506 -983 -699 -1451 l-54 -131 -82 -22
c-237 -66 -626 -312 -753 -476 -24 -32 -57 -71 -72 -87 l-28 -30 0 -792 c0
-500 -4 -796 -10 -802 -5 -5 -11 -79 -12 -164 l-3 -155 -30 -5 -30 -5 0 -390
0 -390 67 -5 c37 -3 73 -11 80 -17 16 -17 67 -16 102 2 24 13 108 15 563 15
l535 0 20 -25 19 -25 329 0 329 0 25 -55 c43 -95 116 -198 200 -281 129 -129
261 -207 432 -256 69 -20 102 -23 254 -23 152 0 185 3 254 23 275 79 511 278
628 528 l30 64 1166 0 1167 0 24 -55 c86 -200 305 -412 513 -497 129 -52 196
-63 383 -62 155 1 178 3 259 28 166 50 296 129 419 252 75 75 176 220 203 290
l17 44 596 0 c500 0 600 2 617 14 18 14 19 32 22 427 3 456 5 445 -62 451
l-31 3 0 943 c0 650 -3 945 -11 950 -5 4 -26 41 -45 82 -62 131 -180 236 -317
282 -31 11 -102 22 -157 26 l-100 7 -16 115 c-10 63 -31 207 -48 320 -16 113
-44 295 -60 405 -63 424 -71 476 -101 675 -17 113 -35 234 -40 270 -5 36 -19
126 -30 200 -11 74 -25 164 -30 200 -5 36 -19 126 -30 200 -11 74 -25 164 -30
200 -5 36 -23 157 -40 270 -17 113 -35 234 -40 270 -5 36 -19 126 -30 200 -11
74 -25 164 -30 200 -5 36 -23 157 -40 270 -17 113 -40 266 -51 340 -11 74 -34
225 -50 335 -89 594 -83 547 -65 557 53 30 182 137 251 209 248 259 375 577
375 939 0 381 -149 727 -425 988 -185 175 -408 291 -670 349 -67 14 -373 27
-440 17z"/>
</g>
</svg>
